<?xml version="1.0" standalone="no"?>
<!DOCTYPE svg PUBLIC "-//W3C//DTD SVG 20010904//EN"
 "http://www.w3.org/TR/2001/REC-SVG-20010904/DTD/svg10.dtd">
<svg version="1.0" xmlns="http://www.w3.org/2000/svg"
 width="1920.000000pt" height="1080.000000pt" viewBox="0 0 1920.000000 1080.000000"
 preserveAspectRatio="xMidYMid meet">

<g transform="translate(0.000000,1080.000000) scale(0.100000,-0.100000)"
fill="#000000" stroke="none">
<path d="M14385 7364 c-16 -3 -120 -8 -230 -12 -224 -9 -219 -8 -339 -97 -78
-57 -136 -117 -160 -164 -10 -18 -16 -56 -16 -95 0 -59 3 -66 29 -89 16 -13
47 -27 68 -30 22 -4 57 -19 79 -35 21 -15 61 -34 88 -42 92 -26 127 -79 141
-220 4 -36 14 -94 22 -130 12 -48 16 -111 15 -235 -1 -114 4 -203 14 -270 13
-80 15 -129 8 -245 -4 -80 -8 -185 -7 -235 8 -520 11 -572 32 -679 34 -176 26
-281 -27 -339 -30 -33 -85 -55 -181 -71 -147 -26 -171 -45 -171 -138 0 -39 10
-79 41 -155 23 -56 48 -105 56 -108 31 -11 211 -17 262 -7 43 8 88 5 224 -14
196 -27 279 -23 433 22 94 27 123 27 246 3 65 -12 72 -12 195 19 70 18 143 32
160 32 29 0 35 5 58 50 30 58 54 73 174 104 l86 22 97 97 c109 108 124 133
204 339 101 258 189 606 201 790 5 80 4 93 -20 146 -26 58 -27 60 -11 118 16
60 14 138 -6 214 -5 19 -27 136 -49 260 -57 319 -84 391 -221 586 -43 60 -89
132 -103 160 -33 64 -66 94 -152 137 -38 20 -113 72 -165 116 -52 45 -124 96
-160 114 l-65 32 -166 0 c-145 0 -169 2 -186 18 -25 21 -41 22 -65 0 -18 -16
-19 -16 -25 5 -7 27 -13 27 -58 1 l-36 -22 -72 21 c-72 21 -186 33 -242 26z
m847 -578 c151 -79 163 -84 232 -100 90 -21 104 -34 103 -94 0 -32 8 -63 25
-97 15 -27 29 -70 33 -95 6 -35 17 -54 52 -88 25 -24 49 -58 54 -75 16 -56 11
-188 -9 -227 l-17 -34 38 -76 c28 -56 43 -103 54 -171 15 -95 13 -117 -19
-161 -9 -13 -9 -25 2 -57 19 -58 8 -137 -38 -283 -23 -71 -50 -175 -61 -232
-22 -119 -38 -155 -90 -209 -20 -21 -43 -59 -51 -85 -14 -43 -19 -47 -64 -61
-37 -12 -66 -32 -113 -79 -70 -70 -91 -81 -213 -111 -47 -12 -114 -34 -150
-49 -95 -39 -164 -37 -310 13 -128 43 -170 73 -190 140 -21 71 -24 264 -6 413
21 167 23 278 12 529 -7 142 -5 249 5 405 16 248 18 439 5 630 -10 156 -4 186
48 217 40 24 120 41 199 42 34 0 109 8 167 18 174 31 206 28 302 -23z"/>
<path d="M12369 7346 c-15 -14 -232 -29 -529 -35 -406 -9 -403 -9 -481 -105
-67 -83 -99 -149 -99 -207 0 -59 23 -89 92 -120 47 -21 71 -24 218 -27 91 -1
192 1 224 5 58 8 60 9 68 43 16 64 16 64 49 35 18 -14 53 -37 78 -49 25 -13
58 -36 74 -51 25 -25 27 -34 27 -102 0 -52 10 -112 32 -196 37 -143 40 -214
13 -366 -13 -78 -16 -121 -10 -175 5 -39 9 -125 10 -191 1 -67 7 -133 13 -148
18 -42 15 -132 -8 -238 -24 -112 -26 -291 -7 -521 6 -84 12 -198 12 -253 0
-91 -2 -104 -28 -147 -53 -91 -157 -154 -306 -184 -120 -24 -233 -16 -294 19
-25 15 -57 27 -72 27 -34 0 -101 -69 -143 -148 -40 -75 -45 -166 -12 -220 46
-75 175 -92 349 -47 90 23 98 23 159 9 52 -12 148 -15 510 -14 371 1 463 -1
542 -15 213 -36 285 -31 361 28 63 49 101 123 107 212 5 89 -7 131 -54 176
-34 33 -37 34 -130 37 -52 2 -124 -1 -159 -7 -85 -15 -262 -15 -317 -1 -57 16
-107 54 -125 98 -17 41 -14 148 7 295 10 70 10 113 0 220 -21 220 -23 316 -11
373 11 47 10 58 -6 91 -24 50 -23 226 1 292 16 43 16 45 -5 67 -28 30 -34 87
-15 160 9 34 16 88 16 120 0 33 5 86 11 119 6 33 12 157 13 275 1 205 2 217
24 251 14 23 37 43 60 52 47 19 57 31 71 84 11 39 31 68 31 43 0 -5 15 -19 33
-30 40 -25 116 -26 159 -4 28 14 40 15 99 4 37 -7 84 -10 104 -7 38 6 114 56
178 116 46 43 47 71 7 131 -28 41 -37 65 -54 143 -6 23 -11 27 -42 27 -22 0
-47 9 -68 25 -19 15 -46 25 -65 25 -18 0 -49 -11 -69 -25 -20 -14 -45 -25 -54
-25 -28 0 -21 -16 19 -49 32 -27 34 -31 16 -31 -11 0 -53 25 -92 55 -52 42
-79 56 -107 58 -34 2 -39 -2 -63 -42 -35 -59 -51 -63 -51 -14 0 54 -23 83 -64
83 -29 0 -35 -4 -41 -27 -16 -65 -39 -67 -120 -13 -56 37 -76 46 -86 36z
m-201 -392 c39 -27 23 -104 -23 -104 -50 0 -70 84 -26 110 21 13 23 12 49 -6z"/>
<path d="M4460 7299 c-135 -32 -176 -39 -225 -34 -81 8 -160 8 -216 0 -39 -6
-55 -2 -107 24 -74 37 -82 38 -112 6 -48 -51 -102 -60 -375 -61 -287 0 -352
-9 -398 -56 -33 -33 -33 -55 -2 -161 23 -79 52 -92 182 -83 79 6 99 4 136 -12
85 -38 133 -131 147 -284 25 -262 32 -493 20 -585 -13 -96 -11 -163 11 -280
11 -64 11 -74 -3 -90 -20 -22 -30 -151 -31 -383 0 -138 3 -174 19 -220 19 -55
19 -56 -1 -105 -16 -42 -20 -74 -20 -205 0 -85 3 -181 8 -212 5 -44 4 -58 -5
-58 -7 0 -34 -22 -59 -50 l-46 -50 -91 0 c-105 0 -126 -6 -169 -50 -42 -43
-63 -106 -70 -207 -6 -79 -5 -82 21 -106 52 -48 130 -62 346 -61 152 1 212 5
270 19 108 26 236 30 364 10 137 -20 165 -13 203 53 24 40 28 58 28 127 0 94
-23 170 -63 208 -34 33 -102 47 -221 47 -48 0 -97 6 -111 13 -14 6 -36 35 -50
62 -24 47 -25 62 -32 275 -4 124 -10 282 -14 351 l-7 126 60 69 c33 38 78 82
101 98 36 25 47 28 79 21 47 -10 133 -10 196 0 41 7 52 4 86 -18 40 -27 101
-109 101 -137 0 -10 -7 -23 -15 -30 -27 -22 -18 -59 20 -81 19 -12 35 -27 35
-34 0 -7 -16 -23 -35 -35 -19 -12 -35 -23 -35 -26 0 -18 55 -119 88 -161 57
-71 105 -87 168 -54 47 25 87 71 108 124 8 19 16 97 20 192 5 130 3 169 -10
210 -23 75 -29 237 -15 455 17 263 4 498 -30 567 -34 68 -79 96 -146 91 -59
-5 -108 -34 -143 -85 -20 -30 -24 -51 -32 -186 -9 -167 -28 -255 -63 -287 -25
-23 -205 -76 -296 -86 -71 -8 -105 0 -112 25 -3 11 -28 30 -61 46 -67 32 -72
45 -61 159 5 44 9 221 9 393 l1 311 24 26 c14 15 47 33 75 41 28 8 84 28 126
44 127 49 247 51 367 7 73 -27 247 -39 349 -24 49 7 130 13 179 12 104 0 151
-19 205 -80 54 -62 77 -128 114 -331 36 -192 59 -266 90 -292 9 -8 49 -16 91
-19 89 -6 151 14 189 58 66 79 62 183 -17 435 -40 128 -58 206 -64 270 l-8 90
-44 21 c-52 25 -54 28 -75 127 -13 57 -23 81 -39 91 -12 8 -85 21 -162 30
-141 16 -193 13 -294 -14 -37 -10 -44 -8 -72 12 -26 20 -44 23 -122 25 -78 2
-118 -4 -257 -38z m-1245 -3049 c21 -23 34 -110 16 -110 -7 0 -23 11 -36 25
-18 18 -25 35 -25 65 0 45 16 52 45 20z"/>
<path d="M9595 7303 c-120 -33 -252 -35 -392 -5 -119 26 -195 27 -278 7 -33
-9 -130 -19 -217 -24 -179 -9 -234 -27 -276 -91 -20 -30 -23 -45 -20 -102 5
-95 27 -122 99 -126 30 -1 64 -4 76 -7 33 -8 91 -62 113 -106 77 -150 112
-577 74 -894 -15 -132 -36 -573 -38 -810 -1 -87 5 -164 17 -231 16 -84 17
-111 7 -160 -6 -32 -15 -106 -20 -164 -12 -138 -25 -177 -70 -222 -34 -34 -43
-38 -88 -38 -43 0 -57 -5 -87 -31 -27 -24 -48 -33 -97 -39 -80 -10 -107 -21
-152 -60 -69 -61 -55 -146 31 -197 44 -26 56 -28 148 -28 64 1 137 9 202 23
119 26 215 28 333 6 97 -17 176 -13 320 17 113 24 156 49 205 121 41 62 47
123 16 173 -21 35 -101 80 -211 120 -185 66 -270 160 -270 299 0 28 9 110 19
181 10 72 22 204 26 295 6 149 9 169 31 207 46 80 150 120 254 98 44 -9 83
-10 143 -3 45 5 152 7 237 4 l154 -5 73 -101 c98 -138 114 -184 120 -340 2
-77 10 -145 20 -176 16 -50 16 -52 -5 -79 -26 -33 -28 -76 -6 -136 8 -24 24
-104 35 -177 36 -249 73 -344 161 -408 39 -29 285 -111 358 -119 60 -7 231 30
276 60 21 13 22 18 12 35 -17 27 2 45 46 42 l34 -2 4 65 c3 54 8 69 32 94 28
30 29 31 24 134 -7 168 -53 231 -186 255 -71 13 -89 -3 -147 -124 -24 -52 -52
-97 -61 -101 -56 -21 -114 58 -170 231 -35 109 -44 163 -63 391 -13 149 -30
214 -86 335 -76 163 -74 194 21 311 36 45 77 105 90 134 23 47 33 57 94 89
120 63 144 125 145 376 0 164 0 165 -22 168 -28 4 -28 2 2 67 24 50 25 56 12
87 -8 18 -31 49 -51 67 -39 38 -44 52 -21 71 25 20 18 35 -49 112 -64 74 -96
124 -96 153 0 28 -48 112 -80 139 -83 69 -165 99 -330 121 -63 9 -144 22 -180
30 -93 21 -190 17 -295 -12z m100 -364 c39 0 100 3 137 6 75 7 133 -6 241 -54
46 -21 69 -38 79 -58 10 -22 22 -29 53 -33 34 -4 44 -12 77 -59 47 -67 98
-198 98 -248 -1 -87 -135 -318 -248 -425 -57 -55 -63 -58 -110 -58 -65 0 -181
-30 -304 -80 -55 -22 -114 -40 -131 -40 -17 0 -63 18 -103 40 -84 46 -101 48
-185 19 -72 -25 -146 -22 -187 8 -38 27 -71 98 -78 168 -5 52 -2 73 27 155 36
106 40 155 19 290 -17 118 -11 207 19 248 30 43 95 74 206 100 50 12 99 23
110 26 11 3 63 2 115 -1 52 -3 127 -5 165 -4z"/>
<path d="M6805 7314 c-107 -21 -136 -30 -177 -50 -66 -34 -80 -59 -89 -167 -5
-52 -19 -124 -33 -164 -13 -40 -32 -109 -41 -155 -10 -52 -34 -118 -63 -177
l-46 -94 -7 -141 c-8 -155 -16 -184 -64 -257 -45 -66 -50 -96 -30 -186 22 -98
16 -158 -24 -233 -17 -33 -31 -73 -31 -89 0 -31 30 -66 37 -43 5 14 43 17 43
3 0 -5 -16 -15 -35 -21 -31 -10 -35 -16 -35 -44 0 -18 5 -47 11 -64 11 -33 -3
-75 -35 -101 -20 -17 -20 -77 -1 -111 22 -39 18 -59 -20 -101 -32 -36 -35 -44
-35 -103 0 -51 -4 -68 -18 -78 -32 -23 -52 -62 -52 -102 0 -57 -37 -269 -62
-355 -32 -108 -55 -128 -215 -179 -72 -23 -146 -52 -164 -65 -66 -44 -97 -124
-69 -176 16 -31 103 -60 212 -72 117 -13 215 -9 543 21 127 12 259 24 294 27
l63 5 -5 34 c-7 44 -50 138 -82 180 -17 22 -46 40 -95 59 -99 38 -111 50 -116
115 -5 51 -2 59 30 105 27 38 36 60 36 91 0 22 9 67 21 101 l20 61 77 27 c42
15 113 44 158 65 l81 37 22 -25 c21 -24 24 -24 129 -18 59 3 137 9 175 12 l67
6 78 -78 c90 -91 124 -153 130 -237 7 -98 -13 -134 -154 -274 -69 -68 -126
-132 -130 -147 -10 -41 23 -85 91 -122 139 -76 368 -114 474 -79 40 13 68 15
120 10 72 -7 80 -3 106 49 9 18 22 22 83 26 71 5 75 6 113 48 36 38 40 47 37
85 -3 37 -7 44 -40 60 -20 10 -81 27 -134 38 -53 10 -112 28 -130 40 -19 11
-74 64 -123 116 -87 93 -89 97 -76 122 37 73 27 208 -35 471 -40 166 -50 225
-70 402 -6 53 -25 148 -42 210 -45 171 -46 175 -53 273 -9 124 -20 176 -75
355 -94 300 -102 344 -80 420 6 19 11 62 12 95 2 48 -3 69 -21 98 -13 22 -27
66 -33 109 -13 95 -25 120 -92 198 -31 36 -61 79 -68 97 -6 17 -21 34 -32 37
-23 6 -199 6 -231 0z m89 -998 c72 -30 107 -113 126 -298 6 -59 17 -129 26
-157 8 -28 18 -90 23 -139 7 -73 16 -106 54 -192 52 -115 53 -119 33 -159 -33
-62 -231 -131 -386 -134 -91 -2 -122 14 -151 76 -29 65 -26 209 7 312 22 70
25 99 27 245 3 165 3 165 40 257 20 51 37 104 37 117 0 20 9 29 45 45 25 11
45 25 45 30 0 15 34 14 74 -3z"/>
</g>
</svg>
